# xmcd CD database file
#
# Track frame offsets:
#	150
#	10125
#	21853
#	32809
#	43836
#	53971
#	64269
#	75220
#	85639
#	94987
#	106547
#	117691
#	130674
#	142647
#	153799
#	165583
#
# Disc length: 2332 seconds
#
# Revision: 1
# Processed by: cddbd v1.5.2PL0 Copyright (c) Steve Scherf et al.
# Submitted via: jetAudio 7
#
DISCID=ba091a10
DTITLE=Chet Atkins - The Great Chet Atkins Disc 2
DYEAR=1900
DGENRE=Country
TTITLE0=Imagination
TTITLE1=Hangover Blues
TTITLE2=Stephen Foster Medley
TTITLE3=Lover Come Back To Me
TTITLE4=Nobody's Sweetheart
TTITLE5=St  Louis Blues
TTITLE6=The Third Man Theme
TTITLE7=Blue Gypsy
TTITLE8=Sweet Bunch Of Daisies
TTITLE9=Your Mean Little Heart
TTITLE10=Good-Bye Blues
TTITLE11=Midnight
TTITLE12=Spanish Fandango
TTITLE13=In The Mood
TTITLE14=Rainbow
TTITLE15=Rustic Dance
EXTD=Rajon Distribution Pty Ltd.Found in record store in Perth, Wester
EXTD=n Australia.Disc 2 of 3
EXTT0=
EXTT1=
EXTT2=
EXTT3=
EXTT4=
EXTT5=
EXTT6=
EXTT7=
EXTT8=
EXTT9=
EXTT10=
EXTT11=
EXTT12=
EXTT13=
EXTT14=
EXTT15=
PLAYORDER=
